<mxfile host="app.diagrams.net" modified="2023-07-18T16:48:43.537Z" agent="Mozilla/5.0 (X11; Linux x86_64; rv:109.0) Gecko/20100101 Firefox/111.0" etag="eAPmfoxRrk-ZwPh_b7W-" version="21.6.2" type="device">
  <diagram name="Page-1" id="Yni-hV92IeuqC90nvM-p">
    <mxGraphModel dx="590" dy="499" grid="1" gridSize="10" guides="1" tooltips="1" connect="1" arrows="1" fold="1" page="1" pageScale="1" pageWidth="850" pageHeight="1100" math="0" shadow="0">
      <root>
        <mxCell id="0" />
        <mxCell id="1" parent="0" />
        <mxCell id="b3jt_64G0zccsvdeO_eG-4" value="" style="shape=cube;whiteSpace=wrap;html=1;boundedLbl=1;backgroundOutline=1;darkOpacity=0.05;darkOpacity2=0.1;size=70;" vertex="1" parent="1">
          <mxGeometry x="250" y="210" width="270" height="270" as="geometry" />
        </mxCell>
        <mxCell id="b3jt_64G0zccsvdeO_eG-10" value="" style="endArrow=classic;html=1;rounded=0;exitX=0;exitY=0;exitDx=0;exitDy=200;exitPerimeter=0;entryX=0;entryY=0;entryDx=70;entryDy=270;entryPerimeter=0;strokeWidth=2;" edge="1" parent="1">
          <mxGeometry width="50" height="50" relative="1" as="geometry">
            <mxPoint x="220" y="430" as="sourcePoint" />
            <mxPoint x="290" y="500" as="targetPoint" />
          </mxGeometry>
        </mxCell>
        <mxCell id="b3jt_64G0zccsvdeO_eG-11" value="" style="endArrow=classic;html=1;rounded=0;exitX=0;exitY=0;exitDx=70;exitDy=270;exitPerimeter=0;entryX=1;entryY=1;entryDx=0;entryDy=0;entryPerimeter=0;strokeWidth=2;" edge="1" parent="1">
          <mxGeometry width="50" height="50" relative="1" as="geometry">
            <mxPoint x="320" y="510" as="sourcePoint" />
            <mxPoint x="520" y="510" as="targetPoint" />
          </mxGeometry>
        </mxCell>
        <mxCell id="b3jt_64G0zccsvdeO_eG-13" value="" style="endArrow=classic;html=1;rounded=0;exitX=0;exitY=0;exitDx=270;exitDy=70;exitPerimeter=0;entryX=1;entryY=1;entryDx=0;entryDy=0;entryPerimeter=0;strokeWidth=2;" edge="1" parent="1">
          <mxGeometry width="50" height="50" relative="1" as="geometry">
            <mxPoint x="540" y="280" as="sourcePoint" />
            <mxPoint x="540" y="480" as="targetPoint" />
          </mxGeometry>
        </mxCell>
        <mxCell id="b3jt_64G0zccsvdeO_eG-14" value="Scratchpad" style="text;html=1;align=center;verticalAlign=middle;resizable=0;points=[];autosize=1;strokeColor=none;fillColor=none;rotation=45;" vertex="1" parent="1">
          <mxGeometry x="190" y="460" width="80" height="30" as="geometry" />
        </mxCell>
        <mxCell id="b3jt_64G0zccsvdeO_eG-15" value="Tensors" style="text;html=1;align=center;verticalAlign=middle;resizable=0;points=[];autosize=1;strokeColor=none;fillColor=none;" vertex="1" parent="1">
          <mxGeometry x="390" y="520" width="70" height="30" as="geometry" />
        </mxCell>
        <mxCell id="b3jt_64G0zccsvdeO_eG-16" value="Operation Number" style="text;html=1;align=center;verticalAlign=middle;resizable=0;points=[];autosize=1;strokeColor=none;fillColor=none;rotation=0;" vertex="1" parent="1">
          <mxGeometry x="540" y="360" width="120" height="30" as="geometry" />
        </mxCell>
        <mxCell id="b3jt_64G0zccsvdeO_eG-18" value="" style="verticalLabelPosition=bottom;verticalAlign=top;html=1;shape=mxgraph.basic.patternFillRect;fillStyle=grid;step=5;fillStrokeWidth=0.2;fillStrokeColor=#dddddd;fillColor=#000000;" vertex="1" parent="1">
          <mxGeometry x="320" y="280" width="200" height="200" as="geometry" />
        </mxCell>
        <mxCell id="b3jt_64G0zccsvdeO_eG-24" value="" style="endArrow=none;html=1;rounded=0;entryX=0.89;entryY=0.154;entryDx=0;entryDy=0;entryPerimeter=0;" edge="1" parent="1" target="b3jt_64G0zccsvdeO_eG-4">
          <mxGeometry width="50" height="50" relative="1" as="geometry">
            <mxPoint x="290" y="250" as="sourcePoint" />
            <mxPoint x="530" y="250" as="targetPoint" />
          </mxGeometry>
        </mxCell>
        <mxCell id="b3jt_64G0zccsvdeO_eG-25" value="" style="endArrow=none;html=1;rounded=0;entryX=0.814;entryY=0.077;entryDx=0;entryDy=0;entryPerimeter=0;" edge="1" parent="1" target="b3jt_64G0zccsvdeO_eG-4">
          <mxGeometry width="50" height="50" relative="1" as="geometry">
            <mxPoint x="270" y="230" as="sourcePoint" />
            <mxPoint x="465" y="220" as="targetPoint" />
          </mxGeometry>
        </mxCell>
        <mxCell id="b3jt_64G0zccsvdeO_eG-26" value="" style="endArrow=none;html=1;rounded=0;exitX=0.136;exitY=0.876;exitDx=0;exitDy=0;exitPerimeter=0;" edge="1" parent="1" source="b3jt_64G0zccsvdeO_eG-4">
          <mxGeometry width="50" height="50" relative="1" as="geometry">
            <mxPoint x="290" y="370" as="sourcePoint" />
            <mxPoint x="290" y="250" as="targetPoint" />
          </mxGeometry>
        </mxCell>
        <mxCell id="b3jt_64G0zccsvdeO_eG-27" value="" style="endArrow=none;html=1;rounded=0;exitX=0.06;exitY=0.801;exitDx=0;exitDy=0;exitPerimeter=0;" edge="1" parent="1" source="b3jt_64G0zccsvdeO_eG-4">
          <mxGeometry width="50" height="50" relative="1" as="geometry">
            <mxPoint x="267" y="430" as="sourcePoint" />
            <mxPoint x="270" y="230" as="targetPoint" />
          </mxGeometry>
        </mxCell>
      </root>
    </mxGraphModel>
  </diagram>
</mxfile>
